<?xml version="1.0" standalone="no"?>
<!DOCTYPE svg PUBLIC "-//W3C//DTD SVG 20010904//EN"
 "http://www.w3.org/TR/2001/REC-SVG-20010904/DTD/svg10.dtd">
<svg version="1.0" xmlns="http://www.w3.org/2000/svg"
 width="119.000000pt" height="119.000000pt" viewBox="0 0 119.000000 119.000000"
 preserveAspectRatio="xMidYMid meet">
<metadata>
Created by potrace 1.11, written by Peter Selinger 2001-2013
</metadata>
<g transform="translate(0.000000,119.000000) scale(0.100000,-0.100000)"
fill="#000000" stroke="none">
<path d="M110 1171 c-19 -10 -45 -35 -56 -56 -21 -36 -22 -47 -22 -488 0 -423
1 -455 19 -492 28 -60 69 -78 170 -76 64 2 79 -1 73 -11 -5 -10 -4 -11 7 0 17
16 42 16 33 0 -6 -10 -4 -10 7 0 18 17 123 17 113 -1 -6 -9 -4 -9 7 0 17 17
42 17 33 1 -6 -10 -4 -10 7 -1 18 18 123 18 113 1 -6 -10 -4 -10 7 -1 17 17
42 17 33 0 -6 -9 -4 -9 7 0 18 18 123 18 113 1 -6 -10 -4 -10 7 0 17 16 42 16
33 0 -6 -10 -4 -11 7 0 18 17 123 17 113 -1 -6 -9 -4 -9 7 1 17 16 43 16 33
-1 -6 -9 -5 -9 7 0 8 7 34 14 56 15 23 2 40 5 38 7 -2 2 9 14 24 27 48 40 51
72 48 549 -2 420 -3 442 -22 474 -11 18 -36 42 -55 52 -32 18 -65 19 -480 19
-414 0 -448 -1 -480 -19z"/>
</g>
</svg>
